<svg width="100" height="22" viewBox="0 0 100 22" fill="none" xmlns="http://www.w3.org/2000/svg">
<path d="M21.956 2.03003C23.5976 3.12934 24.5165 4.26751 25.3667 6.05604C25.4748 6.27763 25.5829 6.49922 25.6943 6.72753C25.8659 7.30533 25.8659 7.30533 25.8659 8.80447C23.0653 8.80447 20.2647 8.80447 17.3792 8.80447C17.0497 8.14485 16.7202 7.48522 16.3807 6.80561C15.3657 5.78953 14.4515 5.53316 13.0422 5.46263C11.8014 5.50027 10.8874 5.81716 9.89089 6.55575C8.71222 7.9158 8.45024 9.16871 8.50244 10.9283C8.49834 11.2292 8.49834 11.2292 8.49415 11.5363C8.51552 13.2961 9.01779 14.6438 10.2341 15.9254C11.8691 16.6026 13.7269 16.5804 15.4135 16.0591C16.2178 15.4892 16.2494 15.2789 16.5787 14.396C16.8833 13.7939 16.8833 13.7939 17.3792 13.3019C18.8166 12.9701 20.2324 13.0098 21.7006 13.0364C22.1037 13.0357 22.5069 13.0339 22.9101 13.0311C23.8957 13.0264 24.8804 13.0355 25.8659 13.052C25.9174 12.9239 25.9689 12.7958 26.022 12.6637C26.5598 11.3258 27.0985 9.98824 27.6377 8.65087C27.8387 8.15222 28.0394 7.65349 28.2398 7.15466C28.5286 6.4362 28.8182 5.71807 29.1079 5.00001C29.1969 4.7782 29.2858 4.55639 29.3775 4.32787C29.4624 4.11788 29.5473 3.9079 29.6347 3.69155C29.7453 3.41691 29.7453 3.41691 29.8581 3.13671C30.1642 2.4316 30.5146 1.74652 30.8581 1.0589C33.9882 1.0589 37.1183 1.0589 40.3433 1.0589C40.9199 2.43999 41.4965 3.82107 42.0905 5.24401C42.2678 5.66811 42.4451 6.09221 42.6278 6.52916C43.8077 9.35985 44.946 12.2022 46.0843 15.0509C46.1667 10.4335 46.249 5.81618 46.3339 1.0589C49.9582 1.0589 53.5826 1.0589 57.3167 1.0589C57.5381 1.96073 57.7595 2.86256 57.9876 3.79171C58.5018 5.87465 59.044 7.94199 59.6946 9.98684C59.968 10.8687 60.1225 11.6278 60.0624 12.5523C60.2272 12.5523 60.3919 12.5523 60.5617 12.5523C60.5507 12.3433 60.5398 12.1343 60.5285 11.9189C60.5658 10.9461 60.798 10.1131 61.0921 9.19487C61.9198 6.50545 62.6064 3.78404 63.3074 1.0589C66.9317 1.0589 70.556 1.0589 74.2902 1.0589C74.3726 4.76928 74.4549 8.47965 74.5398 12.3025C75.8217 11.0244 77.1036 9.74643 78.4244 8.42968C78.8255 8.03046 79.2266 7.63124 79.6398 7.21993C79.9631 6.89708 80.2863 6.57419 80.6094 6.25124C80.8547 6.00763 80.8547 6.00763 81.105 5.75909C81.9134 4.95003 82.6937 4.1288 83.4428 3.26418C83.587 3.10024 83.7312 2.93629 83.8797 2.76738C84.2158 2.37659 84.5364 1.97261 84.8535 1.56624C85.8612 0.802219 86.7616 0.901994 87.9924 0.936901C88.2021 0.938158 88.4119 0.939417 88.628 0.940712C89.4078 0.947226 90.1875 0.964667 90.9672 0.98082C92.7125 1.00659 94.4577 1.03235 96.2559 1.0589C96.2559 5.01664 96.2559 8.97437 96.2559 13.052C97.4914 13.052 98.727 13.052 100 13.052C100 14.7011 100 16.3502 100 18.0492C98.7644 18.0492 97.5289 18.0492 96.2559 18.0492C96.2559 19.0386 96.2559 20.028 96.2559 21.0475C93.8671 21.0475 91.4783 21.0475 89.0172 21.0475C89.0172 20.058 89.0172 19.0686 89.0172 18.0492C84.1573 18.0492 79.2974 18.0492 74.2902 18.0492C74.2902 19.0386 74.2902 20.028 74.2902 21.0475C71.9838 21.0475 69.6774 21.0475 67.3011 21.0475C67.2188 16.595 67.1364 12.1426 67.0515 7.55518C66.722 8.87443 66.3925 10.1937 66.0531 11.5529C65.7695 12.5196 65.4816 13.4813 65.1794 14.4419C64.5013 16.6325 63.8792 18.8267 63.3074 21.0475C61.3305 21.0475 59.3536 21.0475 57.3167 21.0475C56.4215 17.9221 55.5347 14.7947 54.6612 11.6632C54.5915 11.4136 54.5219 11.164 54.4501 10.9068C54.3891 10.6876 54.328 10.4685 54.2651 10.2427C54.0368 9.42944 53.8044 8.61732 53.5726 7.80504C53.4902 12.175 53.4079 16.545 53.323 21.0475C49.0397 21.0475 44.7564 21.0475 40.3433 21.0475C40.0962 20.3054 39.8491 19.5633 39.5944 18.7988C35.6406 18.9224 35.6406 18.9224 31.6069 19.0486C31.3598 19.7082 31.1127 20.3679 30.8581 21.0475C28.2222 21.0475 25.5864 21.0475 22.8706 21.0475C22.953 20.6352 23.0353 20.2229 23.1202 19.7982C23.1202 19.6333 23.1202 19.4684 23.1202 19.2985C22.8577 19.484 22.5951 19.6695 22.3246 19.8606C18.0956 22.512 11.9706 22.3273 7.24464 21.2934C4.92663 20.6213 3.02792 19.5375 1.73178 17.4558C1.5141 17.1128 1.5141 17.1128 1.29203 16.7628C-0.184691 14.0447 -0.285738 10.3237 0.436925 7.33656C1.30346 4.68266 2.68286 2.91127 5.14831 1.55861C6.21385 1.14329 7.28283 0.829058 8.39324 0.559187C8.54199 0.515626 8.69074 0.472063 8.84401 0.427181C12.8509 -0.435065 18.3368 -0.0367274 21.956 2.03003Z" fill="#F1ACED"/>
<path d="M88.4483 6C88.6303 6 88.8124 6 89 6C89 8.31 89 10.62 89 13C86.36 13 83.72 13 81 13C82.8653 11.0278 82.8653 11.0278 83.6735 10.2939C83.8486 10.1349 84.0238 9.97587 84.2042 9.81201C84.4701 9.57249 84.4701 9.57249 84.7414 9.32812C84.9197 9.16554 85.098 9.00296 85.2818 8.83545C86.2068 7.99886 87.1486 7.23779 88.1724 6.5C88.2634 6.335 88.3545 6.17 88.4483 6Z" fill="#FEF9F7"/>
<path d="M35.3529 8C36.0721 8.50253 36.4038 8.9135 36.7075 9.62801C36.7843 9.80798 36.861 9.98795 36.9401 10.1734C37.0169 10.3605 37.0937 10.5476 37.1728 10.7404C37.2931 11.0184 37.2931 11.0184 37.4158 11.302C37.8292 12.2889 38 12.9277 38 14C36.35 14 34.7 14 33 14C33.3681 12.4511 33.9792 11.0577 34.7291 9.59646C34.9908 9.06207 35.1997 8.55799 35.3529 8Z" fill="#F1F1F1"/>
</svg>
